# xmcd CD database file
#
# Track frame offsets:
#	150
#	15400
#	37715
#	56542
#	69525
#	78705
#	94055
#	115875
#	134460
#	146897
#	162030
#	183647
#	195092
#	208572
#	218087
#
# Disc length: 3100 seconds
#
# Revision: 0
# Processed by: cddbd v1.5.1PL0 Copyright (c) Steve Scherf et al.
# Submitted via: CDex 1.51
#
DISCID=cb0c1a0f
DTITLE=MORENO+2 - MAQUINA DE ESCREVER MUSICA
DYEAR=2001
DGENRE=MPB
TTITLE0=sertao
TTITLE1=deusa do amor
TTITLE2=enquanto isso
TTITLE3=eu sou melhor que voce
TTITLE4=das partes
TTITLE5=arrivederci
TTITLE6=assim
TTITLE7=para xo
TTITLE8=esfinge
TTITLE9=rio longe
TTITLE10=o livro and o beijo
TTITLE11=nenhuma
TTITLE12=so vendo que beleza
TTITLE13=I'm wishing
TTITLE14=montes claros
EXTD=YEAR: 2001
EXTT0=
EXTT1=
EXTT2=
EXTT3=
EXTT4=
EXTT5=
EXTT6=
EXTT7=
EXTT8=
EXTT9=
EXTT10=
EXTT11=
EXTT12=
EXTT13=
EXTT14=
PLAYORDER=
